<?xml version="1.0" standalone="no"?>
<!DOCTYPE svg PUBLIC "-//W3C//DTD SVG 20010904//EN"
 "http://www.w3.org/TR/2001/REC-SVG-20010904/DTD/svg10.dtd">
<svg version="1.0" xmlns="http://www.w3.org/2000/svg"
 width="733.000000pt" height="477.000000pt" viewBox="0 0 733.000000 477.000000"
 preserveAspectRatio="xMidYMid meet">

<g transform="translate(0.000000,477.000000) scale(0.100000,-0.100000)"
fill="#000000" stroke="none">
<path d="M2322 4588 c-101 -26 -158 -61 -209 -132 -78 -108 -123 -234 -123
-345 0 -25 9 -80 20 -121 11 -41 29 -118 40 -170 12 -58 27 -101 38 -110 11
-10 17 -29 17 -54 0 -30 4 -40 19 -42 14 -2 17 3 14 19 -4 19 1 22 30 24 26 1
46 13 78 44 23 23 40 47 38 54 -3 7 2 15 10 18 9 4 16 13 16 21 0 8 5 16 11
18 18 6 27 84 16 139 -9 45 -8 54 6 64 10 7 17 17 17 23 0 5 7 13 16 16 9 4
14 9 11 12 -8 8 13 66 32 88 21 24 56 37 78 28 14 -5 12 -8 -12 -12 -58 -10
-113 -146 -86 -213 7 -18 14 -40 15 -49 1 -10 14 -31 29 -48 15 -16 27 -34 27
-39 0 -5 12 -16 26 -25 18 -12 24 -24 22 -42 -2 -14 -7 -23 -11 -22 -5 2 -17
-15 -27 -37 -14 -29 -15 -42 -7 -47 8 -5 7 -8 -4 -8 -16 0 -33 -32 -30 -57 1
-7 -3 -13 -9 -13 -5 0 -10 -8 -10 -17 0 -10 -7 -29 -15 -43 -8 -14 -19 -37
-25 -52 -8 -17 -24 -31 -46 -38 -47 -16 -85 -70 -48 -70 11 0 15 -6 11 -20 -3
-10 1 -25 9 -31 8 -7 12 -19 9 -29 -10 -30 36 -71 133 -118 58 -29 100 -57
109 -72 l15 -25 -19 21 c-10 12 -72 47 -136 79 -65 32 -120 62 -123 67 -3 4
-10 8 -16 8 -7 0 -6 -6 2 -15 7 -8 18 -15 25 -15 7 0 18 -7 25 -15 19 -23 -6
-19 -38 6 -15 11 -49 36 -76 56 -30 22 -44 38 -37 43 7 4 2 11 -14 18 -36 17
-41 15 -20 -8 9 -10 15 -26 12 -34 -4 -10 -1 -13 9 -9 9 3 14 0 12 -8 -2 -8 2
-13 8 -12 7 1 11 -5 10 -15 0 -10 6 -17 17 -17 10 0 25 -9 33 -20 13 -17 13
-20 -3 -26 -11 -4 -27 1 -43 15 -14 11 -5 -1 20 -29 25 -27 65 -67 89 -88 24
-21 80 -84 126 -140 45 -56 92 -111 105 -122 l23 -20 -13 25 c-7 14 -22 37
-32 53 -11 15 -15 27 -9 27 5 0 13 -4 16 -10 3 -5 14 -10 24 -10 10 0 26 -9
35 -19 16 -18 16 -20 1 -28 -13 -8 -14 -14 -5 -37 5 -15 7 -32 4 -38 -4 -6 -2
-8 3 -5 6 4 13 0 17 -8 12 -32 -15 -24 -41 12 -47 65 -138 172 -146 172 -19 2
45 -88 116 -162 58 -62 79 -79 86 -68 6 10 10 10 16 1 4 -7 1 -17 -6 -22 -11
-8 -10 -9 3 -5 9 3 22 -2 30 -10 11 -15 11 -16 -4 -10 -11 4 -18 2 -18 -5 0
-7 -12 -1 -27 13 -49 44 -62 52 -59 37 1 -8 11 -27 23 -44 12 -17 30 -53 40
-79 12 -31 26 -51 41 -56 16 -6 22 -5 22 6 0 8 10 4 29 -13 16 -15 36 -33 45
-40 9 -7 16 -22 16 -33 0 -20 0 -20 -22 1 -32 30 -38 25 -39 -30 -1 -27 -2
-53 -3 -57 -1 -5 -6 -37 -11 -73 -7 -52 -10 -59 -14 -36 -3 16 -13 32 -21 34
-13 5 -13 3 -1 -12 8 -9 11 -20 7 -23 -4 -4 -11 -1 -16 6 -4 8 -15 11 -24 8
-11 -5 -16 -1 -16 14 0 11 -4 17 -10 14 -6 -3 -10 1 -10 9 0 9 -7 16 -15 16
-8 0 -23 8 -33 18 -10 10 -24 16 -32 14 -9 -3 -11 1 -7 11 3 9 1 19 -4 23 -6
3 -9 17 -6 30 4 21 1 23 -22 18 -22 -4 -23 -4 -8 6 24 15 21 34 -8 61 -13 13
-25 32 -25 41 0 9 -4 19 -9 22 -4 3 -11 27 -14 53 -4 26 -9 57 -11 68 -3 11
-6 27 -7 35 -1 8 -5 -7 -8 -35 l-6 -50 -12 65 c-19 106 -29 144 -42 165 -11
18 -12 17 -6 -10 3 -16 8 -68 10 -115 4 -71 3 -79 -6 -50 -41 134 -65 190
-112 252 -28 37 -53 68 -56 68 -3 0 -24 16 -46 35 -58 51 -61 43 -4 -17 27
-29 49 -59 49 -66 0 -8 5 -10 12 -6 8 5 9 2 5 -9 -3 -9 0 -22 6 -29 7 -7 16
-20 20 -28 4 -8 21 -37 37 -65 40 -68 38 -93 -2 -27 -18 28 -36 52 -41 52 -11
0 2 -41 19 -58 8 -7 14 -18 14 -24 0 -16 -30 12 -55 52 -27 41 -102 120 -116
120 -5 0 2 -18 16 -40 14 -22 25 -44 25 -50 0 -5 4 -10 8 -10 10 0 52 -73 52
-90 0 -6 7 -18 15 -27 8 -8 13 -19 9 -24 -3 -6 0 -18 8 -27 7 -9 -19 15 -57
54 -65 64 -115 96 -115 73 0 -6 11 -20 25 -33 14 -13 25 -27 25 -31 0 -5 7
-17 17 -27 9 -10 11 -18 5 -18 -6 0 -12 4 -14 9 -1 4 -14 12 -26 16 -20 6 -23
4 -20 -12 2 -10 11 -17 21 -15 22 4 22 -11 0 -29 -13 -11 -17 -11 -20 -1 -3 6
-11 12 -19 12 -8 0 -11 6 -8 15 5 11 -1 15 -20 15 -14 0 -26 -4 -26 -8 0 -25
225 -256 260 -267 10 -3 26 -18 36 -33 31 -47 -177 123 -308 252 -76 74 -106
88 -78 36 7 -13 6 -21 -5 -30 -9 -7 -19 -9 -23 -5 -4 4 -1 10 6 12 19 7 14 23
-7 23 -11 0 -22 6 -24 13 -3 7 -6 6 -6 -5 -1 -9 3 -19 8 -22 5 -3 7 -15 4 -26
-4 -17 0 -19 37 -17 31 1 44 -2 48 -13 4 -12 2 -13 -9 -2 -21 19 -49 15 -49
-8 0 -11 4 -20 9 -20 4 0 20 -17 33 -37 14 -21 52 -67 84 -102 33 -35 63 -70
67 -77 4 -8 15 -14 22 -14 8 0 15 -5 15 -11 0 -6 21 -33 48 -59 51 -53 128
-139 162 -183 22 -27 49 -145 50 -211 0 -28 0 -28 -25 -12 -52 34 -63 11 -11
-25 19 -13 37 -32 40 -41 2 -10 3 -18 2 -18 -11 0 -104 56 -153 91 -33 24 -76
53 -94 64 -19 11 -52 30 -74 43 -22 13 -49 32 -60 42 -21 18 -82 50 -97 50 -4
0 -8 -7 -8 -15 0 -8 7 -15 15 -15 20 0 67 -49 59 -61 -3 -5 0 -9 6 -9 13 0 92
-59 98 -72 2 -5 7 -8 12 -8 4 0 42 -16 83 -35 41 -19 84 -35 95 -35 25 0 37
-16 20 -26 -7 -4 -28 -10 -47 -13 -19 -4 -36 -11 -38 -17 -4 -12 68 -46 137
-64 28 -8 54 -23 68 -41 l24 -29 -37 0 c-45 0 -161 -45 -195 -75 -14 -12 -42
-34 -64 -48 -43 -28 -76 -76 -76 -109 0 -12 -9 -31 -20 -43 -10 -11 -21 -36
-22 -54 -3 -28 2 -36 27 -51 36 -20 44 -65 12 -74 -10 -2 -16 -9 -12 -15 9
-16 1 -14 -52 11 -44 21 -49 27 -98 132 -94 199 -107 229 -162 396 -30 91 -59
169 -64 174 -5 6 -9 16 -9 24 0 8 -25 66 -55 129 -47 98 -54 118 -43 132 12
14 11 14 -4 3 -15 -12 -20 -8 -42 37 -30 59 -33 75 -7 44 l19 -22 4 24 c3 13
1 30 -3 37 -5 7 -9 9 -9 4 0 -14 -32 16 -40 39 -5 13 -2 24 8 31 8 6 13 16 11
23 -3 9 -11 6 -27 -7 -15 -14 -20 -25 -15 -38 6 -17 5 -17 -10 -6 -9 8 -21 11
-27 7 -7 -5 -5 -12 7 -21 16 -13 15 -13 -11 -4 -16 6 -30 9 -33 7 -7 -8 39
-57 53 -57 11 0 13 -6 9 -21 -4 -12 -2 -24 4 -28 6 -4 14 -21 17 -39 5 -26 3
-32 -10 -32 -13 0 -16 -6 -12 -20 3 -11 9 -29 12 -40 4 -17 1 -20 -22 -20 -42
0 -21 -12 23 -13 21 0 30 -2 21 -4 -11 -3 -18 -14 -18 -28 0 -19 4 -23 17 -18
11 4 14 3 9 -5 -4 -7 -2 -12 5 -12 7 0 4 -7 -7 -15 -17 -13 -17 -14 -1 -15 18
0 25 -20 7 -20 -5 0 -10 -8 -11 -17 0 -11 -3 -13 -6 -5 -8 21 -26 13 -20 -9 3
-12 -4 -41 -16 -65 -11 -24 -18 -46 -15 -49 9 -10 76 24 94 47 10 14 14 16 11
6 -5 -14 -2 -15 24 -6 20 7 28 15 25 25 -3 8 -6 17 -6 19 0 2 -9 4 -20 4 -11
0 -20 5 -20 10 0 6 -10 10 -22 10 -16 0 -19 3 -11 11 8 8 19 6 42 -5 17 -9 31
-13 31 -9 0 4 5 2 12 -5 7 -7 27 -12 46 -12 32 0 34 -2 28 -26 -16 -63 -52
-88 -146 -103 -76 -13 -184 -56 -188 -74 -5 -24 26 -28 125 -18 93 10 133 6
133 -11 0 -6 16 -8 35 -6 42 5 46 -12 15 -72 -25 -50 -25 -59 0 -29 l20 24 6
-22 c4 -14 14 -23 25 -23 11 0 19 -4 19 -10 0 -5 9 -10 20 -10 11 0 20 -5 20
-11 0 -5 -4 -7 -10 -4 -5 3 -10 0 -10 -8 0 -22 -29 -42 -42 -29 -17 17 -46 -6
-40 -34 2 -14 0 -24 -7 -24 -6 0 -11 6 -11 14 0 7 -11 21 -24 29 -22 15 -25
15 -30 1 -3 -9 -6 -30 -6 -48 0 -18 -7 -54 -16 -80 -19 -55 -14 -65 20 -42 24
15 26 15 41 -6 14 -21 15 -21 15 -3 0 11 3 16 8 10 10 -16 81 -36 129 -39 84
-4 53 -21 -47 -26 -110 -5 -156 1 -174 25 -15 19 -15 19 -16 -7 0 -30 -6 -33
-93 -43 -74 -9 -167 -55 -112 -55 8 0 15 -4 15 -10 0 -5 8 -9 18 -8 32 2 52
-2 52 -12 0 -5 -9 -10 -20 -10 -11 0 -20 -3 -20 -8 0 -4 -10 -12 -22 -17 -21
-9 -55 -81 -44 -92 7 -7 46 16 111 65 87 65 147 89 240 96 44 4 104 9 133 12
62 7 72 -10 10 -20 -22 -4 -46 -10 -51 -13 -10 -6 -121 -14 -184 -13 -22 0
-43 -9 -65 -29 -28 -25 -31 -31 -21 -52 7 -13 12 -18 12 -11 1 8 21 12 64 12
54 0 74 6 132 36 50 27 84 37 129 41 60 4 60 4 34 -12 -42 -23 -34 -48 17 -53
56 -6 62 -20 13 -27 -43 -7 -89 -37 -76 -51 7 -6 85 19 128 41 40 20 56 20 39
-2 -13 -15 -11 -16 14 -11 24 5 28 2 25 -15 -4 -30 -142 -126 -275 -193 -62
-31 -118 -63 -124 -70 -6 -8 -47 -38 -91 -66 -66 -44 -78 -56 -73 -73 4 -11
10 -34 14 -52 12 -46 48 -99 84 -125 26 -19 42 -22 98 -19 83 3 138 -11 169
-44 19 -20 33 -25 75 -25 29 0 66 -5 84 -11 28 -10 35 -9 52 10 30 31 57 34
139 11 41 -11 90 -20 109 -20 18 0 39 -4 46 -10 21 -17 123 -49 142 -44 11 3
35 -7 58 -24 22 -15 80 -45 128 -65 52 -21 108 -54 134 -77 l46 -40 1012 0
1013 0 5 58 c3 31 6 125 6 207 1 318 -34 384 -255 480 -72 31 -79 37 -82 65
-2 21 -8 30 -20 29 -11 0 -12 -3 -4 -6 6 -2 12 -12 12 -20 0 -13 -8 -15 -42
-10 -23 3 -47 12 -53 20 -5 8 -20 12 -32 11 -17 -3 -21 0 -16 14 14 40 73 51
73 13 0 -12 2 -13 8 -3 5 7 15 10 23 7 10 -4 15 1 15 12 0 13 -9 19 -28 20
-15 1 -34 3 -40 4 -7 1 -20 -2 -29 -5 -13 -6 -16 1 -15 39 0 25 2 45 5 45 2 0
23 -9 45 -19 70 -33 86 -35 86 -13 0 15 -9 21 -37 26 -21 3 -51 18 -68 33 -28
25 -30 30 -28 95 0 38 0 68 -2 66 -6 -7 -35 -131 -35 -151 0 -12 -8 -55 -17
-95 l-18 -72 -30 6 c-39 9 -42 14 -44 92 0 37 -5 112 -10 167 -12 151 -2 374
21 460 6 22 12 87 13 144 2 115 1 113 75 124 47 6 122 28 138 40 21 16 23 2 7
-38 -17 -38 -14 -70 6 -63 19 6 141 239 169 322 14 44 9 61 -19 69 -12 3 -19
1 -15 -4 3 -5 -5 -13 -18 -18 -13 -5 -30 -12 -38 -15 -8 -4 -28 -15 -45 -25
-16 -11 -40 -20 -52 -20 -12 -1 -25 -6 -29 -12 -3 -6 -16 -8 -29 -5 -28 7 -39
-4 -19 -18 24 -18 8 -47 -20 -36 -17 6 -25 4 -33 -9 -16 -26 -170 -65 -211
-54 -33 8 -154 -27 -148 -44 4 -9 -4 -13 -28 -13 -19 0 -41 -3 -50 -6 -14 -5
-14 -8 0 -29 16 -25 2 -23 247 -41 l88 -6 -6 -57 c-20 -175 -23 -287 -20 -572
l4 -317 -116 35 c-160 48 -156 46 -167 81 -6 18 -14 32 -18 32 -4 0 -29 12
-54 25 -26 14 -60 25 -76 25 -39 0 -97 -26 -132 -58 l-28 -27 6 25 c7 24 7 25
-9 5 -16 -19 -16 -19 -10 6 7 27 -8 48 -20 29 -10 -16 -21 -11 -21 10 0 11 5
20 10 20 6 0 0 7 -12 16 -18 13 -21 19 -11 30 6 8 8 14 4 14 -4 0 -2 6 4 14 8
10 8 16 -3 25 -11 9 -16 6 -24 -19 -6 -16 -13 -30 -15 -30 -7 0 5 55 16 67 6
9 6 13 -2 13 -6 0 -11 -4 -11 -10 0 -5 -7 -10 -15 -10 -8 0 -24 -15 -35 -33
-19 -31 -20 -31 -21 -7 -1 14 0 30 1 35 6 29 6 55 1 55 -4 0 -16 -19 -28 -42
l-20 -43 2 37 c2 25 11 44 29 61 17 16 23 28 16 32 -6 3 -8 11 -5 16 4 5 2 9
-3 9 -5 0 -12 -9 -15 -20 -3 -12 -14 -20 -27 -20 -11 0 -18 -4 -15 -10 3 -5 1
-10 -4 -10 -6 0 -11 6 -11 14 0 28 12 46 30 46 11 0 22 5 26 12 4 7 3 8 -4 4
-7 -4 -12 -4 -12 1 0 4 18 16 40 26 37 17 53 37 30 37 -5 0 -10 -4 -10 -9 0
-5 -18 -11 -40 -15 -22 -3 -40 -12 -40 -18 0 -7 -5 -5 -12 4 -7 8 -21 20 -32
25 -12 7 -15 13 -7 17 6 4 11 2 11 -3 0 -6 4 -11 10 -11 5 0 9 10 7 22 -2 18
7 25 42 38 42 16 43 17 18 22 -15 3 -27 1 -27 -4 0 -5 -9 -4 -19 2 -26 14 -31
13 -25 -5 4 -8 1 -15 -5 -15 -18 0 -13 22 12 48 17 20 18 24 5 19 -10 -4 -26
-10 -35 -13 -16 -5 -16 -4 0 6 13 8 15 15 8 24 -8 9 -6 18 8 30 10 9 22 16 27
15 5 -1 17 1 27 6 10 4 43 5 73 3 57 -5 53 7 -5 17 -20 3 -44 0 -62 -9 -27
-14 -52 -5 -28 10 8 5 7 9 -2 15 -10 6 -6 11 14 18 16 6 25 16 22 21 -4 7 -11
8 -18 2 -7 -5 -27 -13 -46 -17 -29 -6 -32 -5 -20 7 7 8 23 13 34 11 15 -4 17
-2 6 5 -32 23 56 25 98 3 11 -7 21 -8 21 -3 0 19 -37 41 -73 44 -21 1 -41 6
-44 12 -4 5 11 7 35 3 40 -5 41 -4 30 16 -6 12 -12 30 -13 40 -2 18 -25 48
-25 31 0 -5 -15 -9 -32 -8 -41 1 -40 16 1 27 36 9 38 16 11 50 -15 18 -19 34
-14 52 5 19 1 35 -14 54 -20 28 -39 85 -65 201 -8 36 -27 93 -41 127 -23 55
-25 68 -16 103 8 30 7 54 -4 102 -14 63 -12 123 6 145 9 11 6 65 -9 166 -3 28
-9 37 -19 33 -9 -3 -14 1 -14 12 0 9 -16 42 -35 72 -19 30 -35 60 -35 67 0 7
-15 19 -32 27 -18 7 -73 43 -121 79 -82 61 -108 74 -222 103 -31 9 24 -36 140
-114 97 -65 99 -67 72 -76 -15 -6 -27 -17 -27 -25 0 -9 -12 2 -26 24 -55 82
-134 150 -134 114 0 -5 -5 -7 -10 -4 -8 5 -7 12 2 23 11 13 11 14 -2 10 -8 -3
-24 2 -34 11 -18 15 -18 15 -7 -6 6 -13 9 -23 6 -23 -3 0 -13 17 -22 38 l-16
37 -11 -31 c-10 -28 -36 -37 -36 -12 0 26 145 208 166 208 14 0 -11 122 -51
254 -13 44 -22 83 -19 87 2 5 -29 31 -70 58 -79 54 -97 71 -72 71 10 0 13 6
10 15 -4 8 -10 13 -14 10 -9 -6 -86 31 -95 45 -3 5 1 10 9 10 9 0 16 7 16 15
0 18 1 18 36 1 30 -16 44 -13 44 10 0 8 -4 12 -10 9 -6 -4 -10 6 -10 24 0 37
36 77 70 77 20 -1 26 -8 35 -41 10 -35 16 -40 44 -43 30 -3 32 -1 26 19 -7 22
-6 22 41 -6 64 -36 72 -45 83 -83 8 -25 6 -36 -10 -56 -10 -13 -19 -29 -19
-35 0 -7 -7 -14 -15 -17 -25 -10 -17 -22 14 -20 17 1 28 -2 25 -6 -3 -4 -16
-8 -30 -8 -13 0 -24 -5 -24 -11 0 -6 9 -9 20 -6 11 3 18 1 14 -4 -8 -13 3 -11
35 6 43 21 48 69 16 133 -14 27 -25 54 -25 59 0 9 -153 105 -227 142 -24 12
-43 26 -43 31 0 6 27 -3 60 -20 34 -17 66 -28 72 -24 7 4 8 3 4 -4 -7 -12 52
-48 62 -38 3 3 0 6 -6 6 -6 0 -12 10 -14 23 -2 12 -8 21 -14 20 -6 -1 -11 6
-11 15 -1 36 74 91 95 70 8 -8 15 -6 27 6 26 25 54 38 68 29 6 -4 17 -8 23 -9
6 -1 27 -5 45 -9 25 -4 30 -3 19 4 -10 8 -11 11 -2 11 15 0 10 36 -12 79 -12
21 -23 30 -38 28 -11 -1 -23 5 -26 13 -4 12 -3 13 10 3 8 -7 18 -10 21 -6 4 3
18 -4 32 -17 21 -20 25 -21 25 -6 0 69 -84 163 -195 219 -137 68 -345 97 -473
65z m562 -253 c3 -9 0 -15 -9 -15 -8 0 -15 7 -15 15 0 8 4 15 9 15 5 0 11 -7
15 -15z m-448 -286 c-8 -19 -15 -26 -15 -17 -1 23 20 75 26 62 2 -7 -3 -27
-11 -45z m144 -259 c0 -5 9 -12 20 -15 11 -3 20 -13 20 -21 0 -17 -31 -19 -48
-1 -7 6 -17 13 -22 13 -6 1 -12 2 -15 3 -3 0 -1 10 5 21 10 18 40 18 40 0z
m-463 -152 c-3 -7 -5 -2 -5 12 0 14 2 19 5 13 2 -7 2 -19 0 -25z m179 -490 c5
-7 3 -8 -6 -3 -8 5 -11 3 -8 -6 3 -8 11 -13 17 -11 6 1 11 -3 11 -9 0 -5 5 -7
12 -3 7 4 8 3 4 -4 -4 -6 -14 -8 -23 -5 -12 5 -14 3 -8 -8 5 -8 -2 -5 -16 6
-13 11 -26 21 -29 23 -4 3 29 32 36 32 2 0 6 -5 10 -12z m337 -91 c3 12 5 8 6
-10 1 -19 -3 -26 -10 -21 -7 4 -5 -5 3 -22 28 -52 78 -190 78 -212 0 -14 -6
-22 -17 -22 -17 -1 -17 -2 -1 -13 20 -16 24 -38 14 -107 -11 -83 -22 -89 -24
-13 -1 63 -13 106 -47 176 -14 28 -12 30 25 29 8 -1 3 4 -12 11 -32 13 -33 15
-14 51 11 21 11 35 3 62 -14 44 -31 44 -23 0 4 -19 3 -37 -1 -39 -5 -3 -8 16
-8 41 1 26 -3 60 -7 76 -7 27 -7 28 11 11 18 -16 20 -15 24 2z m365 -25 c6
-18 -15 -14 -22 4 -4 10 -1 14 6 12 6 -2 14 -10 16 -16z m-290 -57 c-3 -3 -9
2 -12 12 -6 14 -5 15 5 6 7 -7 10 -15 7 -18z m-259 -39 c-3 -3 -11 5 -18 17
-13 21 -12 21 5 5 10 -10 16 -20 13 -22z m308 -91 c8 -27 24 -94 37 -147 18
-84 23 -95 33 -79 10 15 9 22 -1 31 -8 6 -13 19 -11 28 1 9 -2 22 -7 28 -6 8
-3 11 9 10 11 0 27 -20 40 -46 13 -25 23 -38 24 -30 0 8 4 5 7 -7 5 -15 11
-20 20 -14 13 8 9 23 -37 139 -32 81 -15 62 30 -33 39 -82 59 -113 38 -59 -5
15 -8 29 -6 31 5 5 38 -74 35 -85 -2 -9 10 -68 22 -102 22 -66 24 -66 30 0 l7
65 1 -82 c1 -46 -2 -85 -8 -88 -5 -3 -10 0 -10 7 0 8 -7 23 -16 34 -8 10 -12
13 -9 6 13 -26 22 -258 11 -270 -3 -3 -6 12 -7 34 0 21 -4 48 -9 59 -8 19 -9
19 -9 -2 -1 -13 -6 -23 -12 -23 -5 0 -8 4 -4 9 3 5 1 12 -5 16 -7 4 -7 13 0
26 11 20 6 39 -11 39 -6 0 -7 -4 -4 -10 3 -5 0 -10 -7 -10 -23 0 -58 61 -48
81 7 12 6 19 -1 21 -6 2 -13 15 -14 28 -2 14 -10 47 -19 74 -8 27 -13 53 -10
58 3 4 0 8 -5 8 -14 0 -14 -17 3 -92 13 -55 26 -193 39 -418 2 -36 1 -74 -4
-85 l-8 -20 -1 20 c-2 11 -2 24 -1 28 1 4 -12 19 -29 33 -16 14 -30 33 -30 42
0 15 2 15 10 2 8 -13 10 -13 10 2 0 9 3 25 6 35 6 17 6 17 -8 -1 -14 -18 -15
-18 -13 2 1 12 4 25 8 28 13 13 7 26 -9 20 -10 -4 -13 -2 -7 7 11 17 10 31 -2
39 -6 5 -3 8 8 8 9 0 17 5 17 10 0 6 -3 10 -8 10 -11 0 -9 104 3 112 5 4 1 16
-10 29 -13 14 -16 23 -9 26 6 2 10 17 8 34 -2 18 0 28 6 24 12 -8 13 5 1 24
-8 12 -12 12 -25 2 -13 -11 -15 -8 -12 26 2 21 0 67 -4 103 -5 36 -11 92 -14
125 -3 33 -15 89 -26 125 -11 36 -20 67 -19 70 1 10 32 -66 46 -115z m213 54
c15 -28 5 -23 -15 7 -9 15 -12 23 -6 20 6 -4 16 -16 21 -27z m125 -58 c3 -5 1
-12 -5 -16 -5 -3 -10 1 -10 9 0 18 6 21 15 7z m2 -98 c-3 -10 -5 -2 -5 17 0
19 2 27 5 18 2 -10 2 -26 0 -35z m-277 8 c0 -6 -4 -12 -8 -15 -5 -3 -9 1 -9 9
0 8 4 15 9 15 4 0 8 -4 8 -9z m-580 -51 c6 -11 8 -20 6 -20 -3 0 -10 9 -16 20
-6 11 -8 20 -6 20 3 0 10 -9 16 -20z m777 -77 c-3 -10 -5 -4 -5 12 0 17 2 24
5 18 2 -7 2 -21 0 -30z m132 -115 c-1 -47 -2 -50 -10 -23 -7 26 -3 75 7 75 2
0 4 -24 3 -52z m-1119 -69 c0 -6 -4 -7 -10 -4 -5 3 -10 11 -10 16 0 6 5 7 10
4 6 -3 10 -11 10 -16z m190 -22 c0 -6 -9 -2 -20 8 -11 10 -20 23 -20 28 0 6 9
2 20 -8 11 -10 20 -23 20 -28z m234 27 c3 -8 2 -12 -4 -9 -6 3 -10 10 -10 16
0 14 7 11 14 -7z m-376 -45 c15 -11 46 -38 68 -59 23 -22 44 -37 47 -34 3 3
16 -1 29 -10 18 -12 29 -34 42 -92 10 -41 16 -77 14 -79 -2 -2 -41 42 -88 98
-47 56 -95 112 -107 125 -13 12 -23 29 -23 37 0 8 -4 15 -10 15 -5 0 -10 5
-10 10 0 15 9 12 38 -11z m654 -31 c-8 -8 -9 -4 -5 13 4 13 8 18 11 10 2 -7
-1 -18 -6 -23z m285 -25 c-3 -10 -5 -2 -5 17 0 19 2 27 5 18 2 -10 2 -26 0
-35z m-547 7 c0 -5 -5 -10 -11 -10 -5 0 -7 5 -4 10 3 6 8 10 11 10 2 0 4 -4 4
-10z m710 -71 c0 -6 -4 -7 -10 -4 -5 3 -10 11 -10 16 0 6 5 7 10 4 6 -3 10
-11 10 -16z m-1746 -15 c5 -14 4 -15 -9 -4 -17 14 -19 20 -6 20 5 0 12 -7 15
-16z m1529 -75 c-7 -7 -10 1 -10 23 -1 31 0 32 10 10 7 -15 7 -26 0 -33z m222
31 c3 -5 1 -10 -4 -10 -6 0 -11 5 -11 10 0 6 2 10 4 10 3 0 8 -4 11 -10z
m-225 -80 c0 -5 -4 -10 -10 -10 -5 0 -10 5 -10 10 0 6 5 10 10 10 6 0 10 -4
10 -10z m27 -12 c-3 -8 -6 -5 -6 6 -1 11 2 17 5 13 3 -3 4 -12 1 -19z m-33
-40 c-4 -14 -2 -18 5 -14 6 4 11 14 11 23 0 9 3 14 6 10 9 -9 -5 -45 -22 -51
-11 -4 -14 2 -12 29 1 18 6 31 10 29 5 -3 6 -15 2 -26z m-1509 -17 c-6 -5 -25
10 -25 20 0 5 6 4 14 -3 8 -7 12 -15 11 -17z m1395 -43 c0 -7 3 -23 6 -35 4
-14 2 -23 -5 -23 -7 0 -9 5 -6 10 4 7 -5 9 -27 6 -18 -3 -27 -3 -20 0 6 3 12
12 12 20 0 8 5 14 10 14 6 0 10 -5 10 -12 0 -6 3 -8 7 -4 5 4 -1 14 -11 22
-19 14 -19 14 2 14 12 0 22 -6 22 -12z m117 -40 c-3 -7 -5 -2 -5 12 0 14 2 19
5 13 2 -7 2 -19 0 -25z m-137 -33 c0 -9 -6 -12 -15 -9 -8 4 -12 10 -9 15 8 14
24 10 24 -6z m478 -7 c3 -16 -23 -48 -39 -48 -5 0 -9 5 -9 11 0 5 5 7 11 4 6
-4 10 -1 8 6 -4 31 2 50 14 47 6 -3 13 -12 15 -20z m-433 -26 c-3 -3 -11 0
-18 7 -9 10 -8 11 6 5 10 -3 15 -9 12 -12z m-35 -2 c0 -5 -4 -10 -10 -10 -5 0
-10 5 -10 10 0 6 5 10 10 10 6 0 10 -4 10 -10z m-20 -43 c0 -4 -6 -2 -14 5 -8
7 -12 17 -9 22 5 8 23 -12 23 -27z m50 18 c11 -13 10 -14 -4 -9 -9 3 -16 10
-16 15 0 13 6 11 20 -6z m1180 5 c11 -7 7 -10 -17 -10 -18 0 -33 5 -33 10 0
13 30 13 50 0z m-795 -22 c-9 -6 -19 -7 -22 -4 -4 3 -1 6 6 6 7 0 9 4 6 10 -4
6 1 7 11 3 15 -6 15 -7 -1 -15z m-405 -2 c0 -3 -4 -8 -10 -11 -5 -3 -10 -1
-10 4 0 6 5 11 10 11 6 0 10 -2 10 -4z m-53 -38 c-3 -7 -5 -2 -5 12 0 14 2 19
5 13 2 -7 2 -19 0 -25z m1673 23 c0 -5 -7 -11 -15 -15 -9 -3 -15 0 -15 9 0 8
7 15 15 15 8 0 15 -4 15 -9z m-3017 -16 c-3 -9 -8 -14 -10 -11 -3 3 -2 9 2 15
9 16 15 13 8 -4z m-8 -35 c3 -5 1 -10 -4 -10 -6 0 -11 5 -11 10 0 6 2 10 4 10
3 0 8 -4 11 -10z m1361 -39 c-4 -5 0 -12 6 -15 7 -3 4 -5 -7 -5 -36 2 -39 -1
-19 -16 17 -13 17 -14 2 -15 -11 0 -15 -5 -12 -15 4 -8 1 -15 -5 -15 -6 0 -10
-3 -9 -7 6 -20 -25 -53 -59 -64 -21 -6 -42 -14 -48 -18 -5 -3 -18 -4 -27 -3
-10 2 -26 -1 -36 -7 -11 -6 -22 -8 -25 -4 -9 9 12 44 26 42 19 -3 77 22 77 33
0 6 11 19 25 30 14 11 25 27 25 36 0 9 15 24 33 33 37 19 61 23 53 10z m531
-17 c-3 -3 -12 -4 -19 -1 -8 3 -5 6 6 6 11 1 17 -2 13 -5z m-43 -159 c-10 -8
-23 -15 -28 -15 -6 0 -1 7 10 15 10 8 23 15 28 15 6 0 1 -7 -10 -15z m-879 -4
c3 -6 -11 -17 -30 -27 -20 -9 -54 -37 -76 -63 -42 -47 -219 -161 -251 -161
-35 0 -17 18 68 70 47 29 107 71 132 93 48 41 130 97 143 97 4 0 10 -4 14 -9z
m212 -7 c-3 -3 -12 -4 -19 -1 -8 3 -5 6 6 6 11 1 17 -2 13 -5z m663 -24 c-14
-10 -27 -16 -30 -13 -6 6 30 33 44 33 6 0 0 -9 -14 -20z m-785 -45 c17 -13 60
-38 96 -57 36 -19 77 -43 90 -52 44 -31 159 -106 164 -106 6 0 33 96 46 163
10 57 11 58 30 41 10 -9 19 -23 19 -29 0 -7 7 -18 15 -25 8 -7 15 -18 15 -25
0 -8 22 -47 49 -87 54 -82 138 -164 209 -205 26 -14 56 -34 67 -44 18 -15 57
-32 77 -34 3 0 10 -3 14 -7 4 -5 15 -8 25 -8 10 0 49 -16 88 -36 l70 -37 26
31 c29 35 84 57 117 47 30 -9 59 -35 52 -46 -3 -5 0 -9 5 -9 6 0 11 -6 11 -12
0 -7 14 -31 30 -52 17 -22 30 -51 30 -66 0 -14 6 -34 13 -45 8 -13 12 -40 9
-73 -3 -44 -6 -51 -18 -41 -7 6 -21 9 -29 5 -12 -4 -13 -10 -3 -31 6 -14 15
-25 20 -25 4 0 8 -10 7 -22 0 -13 -3 -17 -6 -10 -2 6 -10 12 -17 12 -43 0
-154 89 -139 112 4 7 0 9 -10 5 -14 -5 -17 1 -17 35 0 42 -19 108 -30 108 -4
0 -12 -25 -19 -55 -7 -30 -18 -58 -24 -62 -20 -12 -87 -15 -87 -4 0 6 -7 11
-15 11 -8 0 -15 9 -15 20 0 25 -26 26 -52 3 -17 -15 -18 -14 -18 20 0 44 -7
46 -37 10 -21 -27 -22 -27 -23 -6 0 12 5 25 10 28 6 4 8 15 5 25 -3 10 1 35
10 55 13 33 13 36 0 25 -8 -7 -15 -11 -16 -9 0 2 -2 19 -4 37 -3 40 -25 69
-25 34 0 -12 -14 -37 -30 -56 -17 -18 -37 -50 -45 -69 -14 -34 -45 -67 -33
-36 18 48 19 59 4 59 -8 0 -18 -5 -21 -10 -3 -6 -17 -7 -30 -4 -13 3 -33 0
-46 -6 -20 -11 -120 -39 -142 -40 -5 0 -5 5 -2 10 3 6 14 10 23 10 9 0 48 16
86 35 62 32 90 53 181 130 l30 26 -65 -7 c-36 -4 -74 -8 -85 -10 -11 -2 -36
-6 -55 -9 -19 -3 -55 -18 -80 -33 -53 -33 -150 -75 -157 -69 -2 3 27 22 66 43
39 21 73 44 76 52 8 22 -5 35 -21 21 -8 -6 -17 -10 -19 -7 -3 3 16 24 41 47
52 47 51 63 -1 38 -20 -9 -45 -17 -56 -17 -11 0 -38 -10 -59 -22 -30 -18 -42
-20 -51 -11 -9 9 -1 21 35 54 25 23 46 50 46 61 0 24 -2 24 -60 -18 -33 -23
-58 -34 -70 -31 -11 3 -27 -2 -36 -10 -8 -8 -18 -13 -21 -9 -6 6 13 24 63 60
l26 18 -32 16 c-31 15 -32 15 -55 -14 -14 -16 -24 -23 -25 -16 0 6 5 12 10 12
6 0 10 9 10 20 0 20 -14 27 -24 11 -3 -5 -17 -11 -31 -13 -22 -5 -24 -3 -18
20 l6 25 -35 -27 -35 -26 -6 37 c-6 32 -2 43 23 75 34 42 36 48 16 48 -8 0
-57 -43 -110 -96 -53 -54 -96 -93 -96 -87 0 5 5 14 11 20 8 8 8 13 0 17 -6 4
-11 1 -11 -6 0 -8 -5 -6 -11 5 -10 17 -13 17 -44 -7 -19 -14 -39 -26 -46 -26
-6 0 -18 -8 -25 -17 -12 -17 -13 -16 -14 4 0 12 10 33 23 46 63 68 102 125 93
134 -3 4 -37 -25 -76 -63 -39 -38 -76 -71 -83 -73 -7 -2 -24 -15 -39 -29 -30
-27 -50 -23 -31 7 7 11 8 23 2 32 -7 11 -11 11 -22 -5 -10 -13 -20 -16 -36
-11 -29 9 -22 27 15 37 17 4 41 19 54 33 13 14 27 25 32 25 12 0 118 107 118
119 0 5 18 32 41 60 38 50 42 51 77 45 20 -4 51 -17 67 -29z m795 -195 c-12
-12 -24 -19 -27 -16 -3 3 5 14 18 25 31 25 37 19 9 -9z m-742 -84 c-8 -25 -18
-36 -37 -39 -14 -3 -28 -4 -30 -2 -6 7 52 75 64 75 10 0 11 -8 3 -34z m762 -6
c0 -5 -8 -10 -17 -10 -15 0 -16 2 -3 10 19 12 20 12 20 0z m-687 -31 c3 -13 1
-19 -6 -16 -15 5 -22 37 -9 37 5 0 12 -9 15 -21z m-153 2 c0 -6 -4 -13 -10
-16 -5 -3 -10 1 -10 9 0 9 5 16 10 16 6 0 10 -4 10 -9z m-90 -36 c-7 -9 -15
-13 -18 -10 -3 2 1 11 8 20 7 9 15 13 18 10 3 -2 -1 -11 -8 -20z m-275 -44
c19 -2 19 -3 3 -15 -20 -15 -14 -26 16 -26 14 0 17 -3 9 -11 -15 -15 -53 10
-54 36 0 11 -3 14 -6 8 -6 -17 -25 -16 -48 0 -19 14 -19 14 80 8z m1367 -36
c3 -13 1 -22 -3 -19 -9 5 -13 44 -5 44 2 0 6 -11 8 -25z m-782 -195 c-8 -5
-26 -9 -40 -9 -23 1 -23 2 5 9 43 11 52 11 35 0z m1178 -55 c-3 -3 -9 2 -12
12 -6 14 -5 15 5 6 7 -7 10 -15 7 -18z m-1810 -133 c3 -9 -3 -13 -19 -10 -12
1 -24 9 -27 16 -3 9 3 13 19 10 12 -1 24 -9 27 -16z m1531 -133 c95 -35 105
-37 116 -22 11 15 14 15 36 0 l23 -17 -27 0 c-41 0 -33 -14 28 -51 30 -18 55
-37 55 -41 0 -4 5 -8 12 -8 28 0 126 -97 132 -132 1 -7 10 -28 20 -46 25 -48
14 -63 -13 -19 -13 21 -20 44 -17 52 3 8 0 12 -7 10 -7 -3 -23 11 -37 31 -53
74 -62 84 -76 84 -8 0 -27 12 -42 28 -28 28 -75 55 -103 58 -16 1 -35 10 -122
58 -26 14 -54 26 -61 26 -8 0 -24 9 -37 21 -21 18 -21 20 -4 13 11 -3 67 -24
124 -45z m-2129 -51 c0 -23 -3 -38 -7 -34 -10 10 -10 76 0 76 4 0 7 -19 7 -42z
m275 -178 c3 -5 2 -10 -4 -10 -5 0 -13 5 -16 10 -3 6 -2 10 4 10 5 0 13 -4 16
-10z"/>
<path d="M2911 2596 c-10 -12 -11 -20 -3 -28 16 -16 29 -5 22 21 -5 22 -7 22
-19 7z"/>
<path d="M2860 2549 c0 -5 5 -7 10 -4 6 3 10 8 10 11 0 2 -4 4 -10 4 -5 0 -10
-5 -10 -11z"/>
<path d="M2910 2530 c0 -5 4 -10 9 -10 6 0 13 5 16 10 3 6 -1 10 -9 10 -9 0
-16 -4 -16 -10z"/>
<path d="M2942 2416 c7 -8 15 -12 17 -11 5 6 -10 25 -20 25 -5 0 -4 -6 3 -14z"/>
<path d="M2928 2353 c6 -2 18 -2 25 0 6 3 1 5 -13 5 -14 0 -19 -2 -12 -5z"/>
<path d="M2835 2261 c-3 -5 -1 -12 5 -16 5 -3 10 1 10 9 0 18 -6 21 -15 7z"/>
<path d="M2836 2113 c-6 -14 -5 -15 5 -6 7 7 10 15 7 18 -3 3 -9 -2 -12 -12z"/>
<path d="M2195 2270 c4 -6 11 -8 16 -5 14 9 11 15 -7 15 -8 0 -12 -5 -9 -10z"/>
<path d="M2445 1360 c-9 -17 -20 -30 -25 -30 -6 0 -10 -9 -10 -20 0 -11 -4
-20 -10 -20 -5 0 -10 -10 -10 -22 1 -20 6 -17 44 24 48 52 62 84 40 92 -8 3
-20 -6 -29 -24z"/>
<path d="M2234 1316 c-16 -14 -24 -25 -19 -25 15 -1 61 37 54 44 -4 3 -20 -5
-35 -19z"/>
<path d="M2180 1285 c-7 -9 -11 -18 -8 -20 3 -3 11 1 18 10 7 9 11 18 8 20 -3
3 -11 -1 -18 -10z"/>
<path d="M3360 920 c0 -5 5 -10 11 -10 5 0 7 5 4 10 -3 6 -8 10 -11 10 -2 0
-4 -4 -4 -10z"/>
<path d="M3673 872 c10 -10 17 -24 17 -31 0 -15 32 -11 37 5 2 7 -8 14 -22 18
-14 4 -25 11 -25 16 0 6 -5 10 -12 10 -6 0 -4 -7 5 -18z"/>
<path d="M3720 711 c0 -6 5 -13 10 -16 6 -3 10 1 10 9 0 9 -4 16 -10 16 -5 0
-10 -4 -10 -9z"/>
<path d="M4824 4235 c-3 -7 -15 -10 -28 -8 -16 3 -28 -2 -38 -16 -8 -11 -18
-18 -21 -15 -4 4 -22 -5 -41 -20 -19 -14 -39 -26 -44 -26 -13 0 -82 -79 -114
-133 -31 -49 -39 -78 -10 -36 9 15 29 45 45 68 15 22 30 41 33 41 4 0 1 -7 -6
-15 -8 -10 -9 -15 -2 -15 6 0 9 -7 5 -16 -4 -12 -2 -15 8 -12 8 3 13 12 13 20
-1 12 13 15 62 17 35 0 70 1 77 2 19 1 89 -11 98 -16 4 -3 10 -1 14 5 8 13 25
13 25 0 0 -5 -4 -9 -9 -7 -9 2 -11 -3 -11 -23 0 -5 12 -10 28 -10 l27 -1 -23
-12 c-12 -7 -19 -17 -15 -21 4 -5 -3 -3 -17 4 -20 10 -22 10 -13 0 9 -10 6
-17 -10 -34 -12 -11 -22 -30 -22 -40 0 -11 -6 -21 -13 -24 -8 -2 -12 2 -10 13
2 10 -3 20 -10 22 -9 4 -10 -2 -2 -22 9 -23 7 -31 -15 -52 -13 -14 -22 -29
-20 -34 7 -10 -5 -17 -37 -23 -15 -2 -35 -9 -45 -14 -21 -11 -85 -4 -77 9 3 5
19 9 35 9 17 0 28 -4 24 -10 -4 -6 1 -7 11 -3 11 4 13 8 6 11 -7 2 -12 8 -12
14 0 6 7 7 16 4 8 -3 12 -2 9 4 -9 14 -69 28 -99 23 -59 -12 -79 -83 -30 -105
12 -6 25 -21 28 -34 5 -17 13 -24 31 -24 16 0 25 6 25 15 0 8 -5 15 -10 15 -6
0 -5 6 2 14 9 9 19 11 30 5 31 -17 56 -10 66 19 14 36 62 91 62 70 0 -9 7 -19
16 -22 13 -5 15 -16 11 -57 -6 -53 -19 -77 -50 -88 -15 -6 -12 -9 17 -18 31
-10 43 -7 113 24 145 65 149 66 133 51 -8 -8 -58 -34 -110 -58 -52 -24 -99
-47 -104 -51 -6 -5 -18 -34 -27 -65 -27 -88 -6 -146 42 -116 10 7 29 12 40 12
12 0 47 18 78 41 l56 41 -44 -43 c-25 -24 -46 -53 -47 -64 -1 -11 -14 -46 -29
-77 -25 -54 -69 -101 -159 -172 -20 -15 -34 -32 -31 -36 3 -5 2 -10 -3 -12 -4
-1 -18 -21 -31 -42 -15 -26 -17 -35 -6 -26 13 11 18 10 30 -6 8 -10 15 -27 15
-36 0 -10 4 -18 10 -18 5 0 7 -7 4 -15 -5 -11 -2 -13 10 -9 9 3 16 10 16 15 0
5 4 9 10 9 19 0 32 -82 23 -143 l-10 -58 29 28 c18 17 24 29 17 34 -7 4 -8 15
-3 30 4 13 7 29 6 34 -3 14 45 34 101 41 35 5 51 13 64 33 10 14 17 33 15 41
-1 10 1 10 4 3 8 -19 47 4 40 23 -4 10 -2 12 6 8 8 -5 9 -2 5 9 -4 10 -2 16 4
14 17 -3 77 90 89 136 18 70 21 75 30 52 7 -18 8 -19 15 -3 9 24 25 13 25 -17
0 -13 5 -27 10 -30 18 -11 11 -24 -68 -117 -89 -105 -281 -359 -282 -371 0 -5
6 -5 13 -1 7 4 9 3 4 -2 -5 -5 -14 -9 -19 -9 -6 0 -13 -6 -16 -14 -3 -9 0 -11
9 -6 8 5 11 4 6 -1 -5 -5 -12 -9 -15 -9 -13 0 -32 -16 -32 -26 0 -6 6 -7 13
-3 7 4 9 3 4 -2 -5 -5 -14 -9 -19 -9 -6 0 -13 -6 -16 -14 -3 -9 0 -11 9 -5 12
7 12 5 0 -9 -16 -20 -26 -23 -15 -4 5 8 2 8 -9 -2 -20 -16 -23 -36 -4 -25 8 5
8 2 -2 -9 -16 -20 -25 -22 -16 -4 3 6 -6 -4 -22 -23 -15 -19 -45 -53 -65 -76
-44 -48 -50 -68 -11 -33 23 20 25 20 9 2 -20 -24 -13 -51 9 -33 7 6 59 74 116
152 356 484 447 595 489 591 13 -1 31 -11 40 -21 8 -11 70 -54 137 -96 67 -43
125 -81 128 -87 10 -15 23 -11 28 9 2 9 3 7 2 -5 -1 -13 4 -28 11 -34 16 -13
18 -2 15 94 -2 50 8 73 22 50 2 -5 2 -1 -1 7 -11 34 -18 110 -10 110 8 0 4 63
-13 184 -11 82 -49 157 -118 238 -44 51 -50 65 -64 140 -8 46 -13 97 -10 115
6 39 -35 120 -87 173 -19 19 -46 50 -58 68 -13 18 -28 29 -34 26 -6 -4 -8 -2
-4 4 9 16 -51 57 -114 79 -40 13 -85 18 -162 18 -75 0 -108 4 -108 12 0 15
-70 14 -76 -2z m394 -61 c29 -14 52 -30 52 -36 0 -7 -4 -7 -13 0 -7 6 -37 22
-67 36 -30 14 -48 26 -39 26 8 0 38 -12 67 -26z m220 -243 c23 -41 28 -61 13
-61 -4 0 -18 23 -29 50 -25 59 -15 66 16 11z m-513 19 c-3 -5 -18 -10 -33 -9
-24 0 -25 1 -7 9 28 12 47 12 40 0z m152 -380 c-1 -12 -7 -18 -14 -16 -9 4
-13 -5 -13 -27 0 -22 -3 -28 -9 -18 -5 8 -9 29 -9 47 0 29 4 34 23 34 18 0 23
-5 22 -20z m53 -5 c-7 -8 -18 -15 -24 -15 -6 0 -2 7 8 15 25 19 32 19 16 0z
m-115 -25 c3 -5 1 -10 -4 -10 -6 0 -11 5 -11 10 0 6 2 10 4 10 3 0 8 -4 11
-10z m360 -72 c5 -35 9 -91 10 -126 l1 -63 -17 33 c-9 18 -20 56 -23 83 -4 35
-3 44 3 30 9 -19 10 -19 10 3 1 12 -2 22 -6 22 -5 0 -7 15 -7 33 2 44 3 47 13
47 4 0 12 -28 16 -62z m259 -32 c3 -13 9 -31 12 -40 3 -9 1 -16 -5 -16 -6 0
-11 9 -11 21 0 11 -5 29 -10 40 -6 11 -7 19 -1 19 5 0 12 -11 15 -24z m3 -133
c-3 -10 -5 -4 -5 12 0 17 2 24 5 18 2 -7 2 -21 0 -30z m-394 -168 c-3 -9 -8
-14 -10 -11 -3 3 -2 9 2 15 9 16 15 13 8 -4z m417 -35 c0 -5 -2 -10 -4 -10 -3
0 -8 5 -11 10 -3 6 -1 10 4 10 6 0 11 -4 11 -10z m-916 -585 c-14 -19 -29 -35
-31 -35 -5 0 7 18 36 53 26 31 23 18 -5 -18z"/>
<path d="M5361 3384 c0 -11 3 -14 6 -6 3 7 2 16 -1 19 -3 4 -6 -2 -5 -13z"/>
<path d="M2890 4131 c-62 -30 -76 -40 -78 -62 -3 -28 -8 -26 171 -85 13 -5 16
-2 11 10 -4 10 1 35 11 56 20 45 15 78 -18 101 -21 15 -26 14 -97 -20z m90
-47 c0 -24 -17 -15 -22 11 -4 20 -3 23 8 14 8 -6 14 -18 14 -25z m-140 -34 c0
-5 -2 -10 -4 -10 -3 0 -8 5 -11 10 -3 6 -1 10 4 10 6 0 11 -4 11 -10z m124 -9
c3 -5 -1 -14 -8 -20 -16 -13 -32 2 -21 19 8 12 22 13 29 1z"/>
<path d="M4502 3930 c0 -14 2 -19 5 -12 2 6 2 18 0 25 -3 6 -5 1 -5 -13z"/>
<path d="M2486 3932 c-3 -6 -1 -14 5 -17 15 -10 25 3 12 16 -7 7 -13 7 -17 1z"/>
<path d="M4472 3761 c2 -61 5 -71 20 -71 11 0 18 7 18 19 0 11 6 21 13 24 18
6 -15 91 -37 95 -15 3 -17 -5 -14 -67z"/>
<path d="M2701 3777 c-13 -17 -5 -27 24 -27 13 0 22 6 22 15 0 18 -9 19 -26 3
-11 -11 -13 -10 -8 5 8 20 3 22 -12 4z"/>
<path d="M2021 3501 c-10 -6 -10 -10 -1 -16 13 -8 24 -1 19 14 -3 6 -10 7 -18
2z"/>
<path d="M2035 3460 c3 -5 8 -10 11 -10 2 0 4 5 4 10 0 6 -5 10 -11 10 -5 0
-7 -4 -4 -10z"/>
<path d="M2065 3320 c10 -11 20 -20 23 -20 3 0 -3 9 -13 20 -10 11 -20 20 -23
20 -3 0 3 -9 13 -20z"/>
<path d="M1949 3253 c-13 -16 -12 -17 4 -4 9 7 17 15 17 17 0 8 -8 3 -21 -13z"/>
<path d="M2125 3250 c3 -5 8 -10 11 -10 2 0 4 5 4 10 0 6 -5 10 -11 10 -5 0
-7 -4 -4 -10z"/>
<path d="M5687 2990 c-4 -30 -7 -68 -7 -85 1 -30 1 -30 13 -7 7 12 17 19 22
15 4 -4 4 -1 -1 7 -5 8 -11 40 -14 70 l-5 55 -8 -55z"/>
<path d="M4573 3003 c-17 -6 -16 -40 1 -46 11 -4 36 29 36 48 0 6 -21 5 -37
-2z"/>
<path d="M4884 2905 c-12 -8 -25 -11 -29 -7 -5 4 -5 1 -1 -5 5 -10 13 -9 32 3
13 9 24 18 24 20 0 7 -5 5 -26 -11z"/>
<path d="M4540 2875 c-19 -19 -28 -35 -21 -35 11 0 11 -3 0 -16 -9 -11 -14
-13 -17 -4 -3 7 -27 -11 -58 -41 -29 -29 -50 -57 -47 -62 3 -6 1 -7 -5 -4 -12
8 -133 -123 -125 -136 2 -4 10 -3 17 2 7 6 15 9 18 6 2 -2 24 17 49 43 l44 47
-50 -45 -50 -45 49 50 c29 30 50 45 53 38 7 -20 149 107 145 129 -2 10 2 17 8
16 6 -2 18 14 27 35 22 55 5 65 -37 22z"/>
<path d="M4616 2902 c-3 -5 1 -9 9 -9 8 0 15 4 15 9 0 4 -4 8 -9 8 -6 0 -12
-4 -15 -8z"/>
<path d="M4826 2871 c-4 -5 -2 -12 3 -15 5 -4 12 -2 15 3 4 5 2 12 -3 15 -5 4
-12 2 -15 -3z"/>
<path d="M4670 2852 c0 -27 9 -32 32 -19 16 10 22 9 32 -5 15 -20 26 -23 26
-8 0 8 -70 50 -85 50 -3 0 -5 -8 -5 -18z"/>
<path d="M5731 2854 c0 -11 3 -14 6 -6 3 7 2 16 -1 19 -3 4 -6 -2 -5 -13z"/>
<path d="M2550 2826 c0 -9 5 -16 10 -16 6 0 10 4 10 9 0 6 -4 13 -10 16 -5 3
-10 -1 -10 -9z"/>
<path d="M5100 2818 c0 -12 1 -19 3 -17 1 2 9 12 16 22 12 14 11 17 -3 17 -10
0 -16 -8 -16 -22z"/>
<path d="M4745 2749 c-4 -6 -5 -12 -2 -15 2 -3 7 2 10 11 7 17 1 20 -8 4z"/>
<path d="M1988 2723 c7 -3 16 -2 19 1 4 3 -2 6 -13 5 -11 0 -14 -3 -6 -6z"/>
<path d="M1975 2700 c-3 -5 1 -10 10 -10 9 0 13 5 10 10 -3 6 -8 10 -10 10 -2
0 -7 -4 -10 -10z"/>
<path d="M1935 2690 c-3 -5 1 -10 10 -10 9 0 13 5 10 10 -3 6 -8 10 -10 10 -2
0 -7 -4 -10 -10z"/>
<path d="M4678 2672 c-26 -28 -64 -112 -50 -112 12 0 87 129 79 137 -2 1 -15
-10 -29 -25z"/>
<path d="M4566 2604 c-4 -9 -4 -19 -1 -22 2 -3 7 3 11 12 4 9 4 19 1 22 -2 3
-7 -3 -11 -12z"/>
<path d="M1675 2600 c-3 -5 -1 -10 4 -10 6 0 11 5 11 10 0 6 -2 10 -4 10 -3 0
-8 -4 -11 -10z"/>
<path d="M1720 2601 c0 -5 5 -13 10 -16 6 -3 10 -2 10 4 0 5 -4 13 -10 16 -5
3 -10 2 -10 -4z"/>
<path d="M1678 2563 c7 -3 16 -2 19 1 4 3 -2 6 -13 5 -11 0 -14 -3 -6 -6z"/>
<path d="M4259 2533 l-34 -38 38 34 c20 19 37 36 37 38 0 8 -8 0 -41 -34z"/>
<path d="M1361 2529 c-1 -20 2 -39 6 -43 4 -4 8 -15 8 -24 0 -9 6 -16 13 -14
6 1 12 -5 12 -13 0 -8 5 -15 10 -15 13 0 13 37 0 45 -9 5 -31 49 -43 85 -3 8
-6 -1 -6 -21z"/>
<path d="M1757 2553 c-12 -11 -8 -25 5 -17 7 5 9 2 5 -9 -3 -8 1 -21 9 -27 8
-7 14 -18 14 -25 0 -6 11 -18 25 -25 14 -7 25 -21 25 -31 0 -10 12 -21 30 -28
17 -5 30 -15 30 -20 0 -6 28 -36 61 -68 34 -32 80 -80 101 -108 22 -27 66 -77
97 -111 31 -33 65 -74 76 -89 11 -15 28 -36 38 -47 9 -10 17 -22 17 -28 0 -5
4 -10 9 -10 18 0 -3 46 -56 125 -85 126 -135 186 -279 331 -74 75 -134 139
-134 143 0 4 -11 14 -25 21 -14 7 -25 17 -25 22 0 10 -14 11 -23 1z"/>
<path d="M4234 2538 l-19 -23 23 19 c12 11 22 21 22 23 0 8 -8 2 -26 -19z"/>
<path d="M4520 2545 c-7 -9 -8 -15 -2 -15 5 0 12 7 16 15 3 8 4 15 2 15 -2 0
-9 -7 -16 -15z"/>
<path d="M4194 2488 l-19 -23 23 19 c12 11 22 21 22 23 0 8 -8 2 -26 -19z"/>
<path d="M4204 2468 l-19 -23 23 19 c12 11 22 21 22 23 0 8 -8 2 -26 -19z"/>
<path d="M4148 2401 c-42 -45 -68 -91 -68 -120 0 -16 9 -21 45 -27 25 -3 49
-4 52 0 3 3 11 2 17 -3 6 -5 26 -12 43 -16 29 -6 34 -3 45 20 10 21 9 29 -5
42 -15 15 -19 15 -59 -4 -60 -29 -78 -34 -99 -28 -29 10 -23 38 25 109 24 36
43 66 43 66 -1 0 -19 -18 -39 -39z"/>
<path d="M4531 2393 c-27 -25 -36 -46 -32 -79 0 -6 14 -17 30 -23 22 -10 27
-17 23 -36 -3 -21 -7 -23 -23 -14 -13 6 -19 6 -19 0 0 -33 89 -41 137 -11 31
19 59 57 50 67 -3 2 -10 -5 -16 -16 -15 -27 -66 -53 -94 -48 l-22 4 22 2 c24
1 86 70 79 88 -3 6 2 17 9 23 12 10 17 8 24 -11 5 -13 10 -18 10 -11 1 23 -19
52 -37 52 -9 0 -23 9 -30 20 -19 30 -74 27 -111 -7z m79 -3 c16 -8 17 -14 7
-40 -11 -29 -19 -33 -62 -33 -33 1 -35 2 -35 23 0 24 34 60 56 60 8 0 24 -4
34 -10z m25 -80 c-10 -11 -23 -20 -28 -20 -6 0 -2 9 8 20 10 11 23 20 28 20 6
0 2 -9 -8 -20z"/>
<path d="M1385 2380 c-3 -6 1 -13 10 -16 19 -8 30 0 20 15 -8 14 -22 14 -30 1z"/>
<path d="M1355 2360 c3 -5 8 -10 11 -10 2 0 4 5 4 10 0 6 -5 10 -11 10 -5 0
-7 -4 -4 -10z"/>
<path d="M4388 2343 c-15 -18 -46 -73 -35 -63 9 8 57 80 53 80 -1 0 -10 -8
-18 -17z"/>
<path d="M1445 2320 c-3 -5 1 -10 10 -10 9 0 13 5 10 10 -3 6 -8 10 -10 10 -2
0 -7 -4 -10 -10z"/>
<path d="M2550 2322 c0 -5 7 -9 15 -9 8 0 15 4 15 9 0 4 -7 8 -15 8 -8 0 -15
-4 -15 -8z"/>
<path d="M5220 2319 c0 -5 4 -9 9 -9 5 0 12 -15 16 -32 7 -33 7 -33 15 -8 13
41 11 47 -15 52 -14 3 -25 1 -25 -3z"/>
<path d="M4314 2245 c1 -22 2 -22 19 -8 22 21 22 28 -2 30 -14 1 -18 -5 -17
-22z"/>
<path d="M4090 2241 c0 -6 -5 -10 -11 -8 -17 3 -20 -39 -4 -53 8 -7 22 -10 30
-6 19 7 19 50 0 66 -10 9 -15 9 -15 1z"/>
<path d="M1840 2230 c0 -5 7 -10 15 -10 8 0 15 5 15 10 0 6 -7 10 -15 10 -8 0
-15 -4 -15 -10z"/>
<path d="M1885 2200 c3 -5 10 -10 16 -10 5 0 9 5 9 10 0 6 -7 10 -16 10 -8 0
-12 -4 -9 -10z"/>
<path d="M4202 2180 c-7 -11 -12 -52 -12 -92 0 -47 3 -68 9 -59 5 8 8 37 6 64
-2 26 0 60 6 74 12 32 7 39 -9 13z"/>
<path d="M4278 2161 c-19 -41 -24 -81 -9 -81 12 0 53 51 46 58 -3 3 -12 -3
-20 -14 -17 -23 -19 -9 -4 35 16 45 7 46 -13 2z"/>
<path d="M1380 2165 c7 -8 17 -15 22 -15 6 0 5 7 -2 15 -7 8 -17 15 -22 15 -6
0 -5 -7 2 -15z"/>
<path d="M2038 2133 c7 -3 16 -2 19 1 4 3 -2 6 -13 5 -11 0 -14 -3 -6 -6z"/>
<path d="M1960 2115 c-10 -13 -9 -15 9 -15 11 0 21 4 21 9 0 18 -18 21 -30 6z"/>
<path d="M1985 2081 c-3 -6 3 -15 14 -20 16 -9 18 -8 14 9 -6 21 -18 26 -28
11z"/>
<path d="M2100 2070 c0 -5 5 -10 10 -10 6 0 10 5 10 10 0 6 -4 10 -10 10 -5 0
-10 -4 -10 -10z"/>
<path d="M2040 2020 c0 -5 5 -10 10 -10 6 0 10 5 10 10 0 6 -4 10 -10 10 -5 0
-10 -4 -10 -10z"/>
<path d="M2070 2000 c0 -5 5 -10 11 -10 5 0 7 5 4 10 -3 6 -8 10 -11 10 -2 0
-4 -4 -4 -10z"/>
<path d="M1830 1935 c0 -8 2 -15 4 -15 2 0 6 7 10 15 3 8 1 15 -4 15 -6 0 -10
-7 -10 -15z"/>
<path d="M2135 1940 c4 -6 11 -8 16 -5 14 9 11 15 -7 15 -8 0 -12 -5 -9 -10z"/>
<path d="M1850 1900 c0 -5 5 -10 10 -10 6 0 10 5 10 10 0 6 -4 10 -10 10 -5 0
-10 -4 -10 -10z"/>
<path d="M1881 1897 c-14 -18 -4 -47 16 -47 9 0 13 -6 9 -15 -3 -9 0 -15 8
-15 8 0 21 -11 29 -23 14 -22 30 -38 99 -101 27 -24 85 -40 176 -50 23 -2 42
-1 42 3 0 4 -24 19 -52 35 -29 15 -69 36 -88 47 -19 11 -43 18 -52 15 -13 -3
-18 2 -18 20 0 17 -11 31 -40 49 -22 14 -42 25 -45 25 -3 0 -20 16 -38 35 -28
30 -36 34 -46 22z"/>
<path d="M2190 1897 c0 -17 47 -40 55 -27 3 5 -5 16 -17 24 -27 20 -38 20 -38
3z"/>
<path d="M5422 1824 c10 -10 20 -15 24 -12 3 4 -5 12 -18 18 -22 12 -22 12 -6
-6z"/>
<path d="M4296 1743 c-3 -43 -2 -94 3 -113 7 -27 9 -9 10 78 1 61 -1 112 -3
112 -2 0 -6 -35 -10 -77z"/>
<path d="M1322 1789 c-17 -27 -15 -34 13 -37 20 -1 25 3 25 22 0 31 -23 40
-38 15z"/>
<path d="M5595 1770 c11 -12 34 -31 50 -43 l30 -20 -30 32 c-16 18 -39 37 -50
43 l-20 11 20 -23z"/>
<path d="M1877 1663 c-12 -11 -8 -23 8 -23 8 0 15 -4 15 -10 0 -5 9 -10 20
-10 12 0 26 -12 35 -30 9 -17 24 -30 34 -30 11 0 21 -4 23 -9 4 -12 100 21
106 37 2 8 -8 12 -30 12 -18 0 -44 9 -58 20 -14 11 -33 20 -42 20 -10 0 -18 5
-18 10 0 14 -38 12 -43 -2 -3 -10 -9 -8 -24 5 -11 9 -23 14 -26 10z"/>
<path d="M3370 1640 c0 -5 6 -10 13 -10 7 0 29 -8 49 -18 21 -11 34 -14 32 -7
-5 12 -67 45 -84 45 -6 0 -10 -4 -10 -10z"/>
<path d="M4605 1628 c4 -13 7 -31 9 -40 3 -25 49 -68 73 -68 12 0 27 8 32 18
7 10 14 13 18 7 8 -10 44 -30 148 -84 28 -14 52 -28 55 -32 10 -11 108 -48
170 -64 36 -9 72 -22 80 -29 22 -18 160 -42 168 -29 4 5 19 14 35 19 45 15 32
28 -40 40 -65 11 -142 32 -320 89 -62 19 -358 153 -426 192 -4 3 -5 -6 -2 -19z"/>
<path d="M4252 1553 c2 -14 8 -28 14 -30 17 -6 26 27 13 43 -18 22 -31 16 -27
-13z"/>
<path d="M4286 1491 c-18 -76 -18 -178 1 -228 4 -10 2 -14 -5 -9 -6 3 -13 2
-17 -4 -3 -5 3 -10 14 -10 11 0 22 -8 24 -17 2 -10 3 -5 1 11 -2 16 1 35 8 43
9 11 9 16 -1 23 -8 4 -11 12 -7 18 3 6 3 13 -2 16 -9 5 -8 57 3 164 4 39 5 72
3 72 -2 0 -12 -36 -22 -79z"/>
<path d="M4338 1553 c7 -3 16 -2 19 1 4 3 -2 6 -13 5 -11 0 -14 -3 -6 -6z"/>
<path d="M3296 1541 c-12 -5 -15 -10 -9 -14 6 -4 16 0 23 8 14 17 13 17 -14 6z"/>
<path d="M1926 1503 c-7 -18 14 -37 27 -24 9 9 -1 41 -13 41 -4 0 -11 -8 -14
-17z"/>
<path d="M3445 1499 c4 -6 9 -8 12 -5 3 3 23 -4 45 -15 22 -11 37 -15 33 -9
-8 13 -66 40 -85 40 -6 0 -8 -5 -5 -11z"/>
<path d="M3448 1463 c6 -2 18 -2 25 0 6 3 1 5 -13 5 -14 0 -19 -2 -12 -5z"/>
<path d="M1917 1435 c-17 -24 -17 -25 1 -25 13 0 21 9 24 25 6 31 -2 31 -25 0z"/>
<path d="M3490 1456 c0 -3 14 -12 32 -20 31 -16 31 -16 13 4 -16 18 -45 28
-45 16z"/>
<path d="M3360 1419 c0 -5 5 -7 10 -4 6 3 10 8 10 11 0 2 -4 4 -10 4 -5 0 -10
-5 -10 -11z"/>
<path d="M3325 1410 c-3 -6 1 -7 9 -4 18 7 21 14 7 14 -6 0 -13 -4 -16 -10z"/>
<path d="M6911 1404 c0 -11 3 -14 6 -6 3 7 2 16 -1 19 -3 4 -6 -2 -5 -13z"/>
<path d="M1425 1397 c-17 -13 -17 -14 6 -20 13 -4 28 -2 33 3 7 7 4 10 -8 10
-9 0 -14 5 -11 10 8 14 2 13 -20 -3z"/>
<path d="M3330 1380 c-8 -5 -10 -10 -5 -10 6 0 17 5 25 10 8 5 11 10 5 10 -5
0 -17 -5 -25 -10z"/>
<path d="M3464 1379 c-3 -5 12 -9 33 -9 26 0 51 -8 73 -25 46 -34 52 -31 12 5
-18 17 -40 31 -50 31 -9 1 -27 3 -40 4 -12 1 -25 -2 -28 -6z"/>
<path d="M3410 1321 c0 -6 9 -9 20 -8 11 1 20 5 20 9 0 4 -9 8 -20 8 -11 0
-20 -4 -20 -9z"/>
<path d="M3330 1290 c-13 -8 -12 -10 3 -10 9 0 17 5 17 10 0 12 -1 12 -20 0z"/>
<path d="M4330 1295 c0 -15 18 -40 24 -34 3 3 -1 14 -9 25 -8 10 -14 15 -15 9z"/>
<path d="M3430 1240 c-9 -6 -10 -10 -3 -10 6 0 15 5 18 10 8 12 4 12 -15 0z"/>
<path d="M3680 1231 c0 -5 6 -14 13 -18 7 -4 21 -19 30 -33 16 -24 17 -24 17
-3 0 13 -13 31 -30 43 -16 12 -30 17 -30 11z"/>
<path d="M1990 1191 c0 -5 5 -13 10 -16 6 -3 10 -2 10 4 0 5 -4 13 -10 16 -5
3 -10 2 -10 -4z"/>
<path d="M4255 1180 c-9 -15 5 -52 18 -47 15 5 16 49 0 54 -6 2 -14 -1 -18 -7z"/>
<path d="M4427 1170 c-3 -11 -1 -20 4 -20 5 0 9 9 9 20 0 11 -2 20 -4 20 -2 0
-6 -9 -9 -20z"/>
<path d="M3504 1126 c-8 -22 3 -33 18 -18 9 9 9 15 0 24 -9 9 -13 7 -18 -6z"/>
<path d="M4361 1118 c0 -7 21 -30 45 -52 l44 -39 0 41 c0 32 -5 44 -21 53 -17
9 -24 8 -31 -2 -7 -11 -11 -11 -15 -1 -2 6 -9 12 -14 12 -5 0 -9 -6 -8 -12z"/>
<path d="M6990 1110 c0 -5 7 -10 16 -10 8 0 12 5 9 10 -3 6 -10 10 -16 10 -5
0 -9 -4 -9 -10z"/>
<path d="M1610 994 c-85 -45 -111 -55 -138 -50 -22 3 -35 1 -38 -9 -3 -7 -35
-21 -72 -30 -76 -18 -126 -49 -103 -64 8 -5 11 -16 6 -30 -9 -30 14 -27 55 9
38 32 55 38 47 16 -4 -9 3 -16 16 -20 25 -6 154 21 163 35 3 5 9 7 14 4 9 -6
128 98 152 134 18 27 24 61 11 61 -5 -1 -55 -26 -113 -56z"/>
<path d="M6710 996 c0 -80 8 -83 215 -92 174 -6 197 -10 174 -25 -10 -6 -4 -9
19 -9 l32 0 0 79 0 79 -147 6 c-82 4 -181 9 -220 12 l-73 6 0 -56z"/>
<path d="M6515 959 c-4 -6 -5 -13 -2 -16 7 -7 27 6 27 18 0 12 -17 12 -25 -2z"/>
<path d="M5734 924 c3 -9 6 -19 6 -22 0 -4 95 -6 212 -4 181 2 208 5 187 16
-16 8 -91 15 -218 19 -173 6 -192 5 -187 -9z"/>
<path d="M4368 923 c6 -2 18 -2 25 0 6 3 1 5 -13 5 -14 0 -19 -2 -12 -5z"/>
<path d="M6753 893 c9 -2 25 -2 35 0 9 3 1 5 -18 5 -19 0 -27 -2 -17 -5z"/>
<path d="M6818 893 c6 -2 18 -2 25 0 6 3 1 5 -13 5 -14 0 -19 -2 -12 -5z"/>
<path d="M6963 883 c15 -2 39 -2 55 0 15 2 2 4 -28 4 -30 0 -43 -2 -27 -4z"/>
<path d="M5777 793 c1 -32 5 -161 7 -288 2 -126 10 -276 17 -332 12 -98 13
-101 33 -90 12 7 23 14 26 17 13 14 128 69 155 74 99 19 409 6 635 -26 214
-31 196 -36 192 45 -1 37 1 68 5 68 29 5 65 4 69 -2 2 -4 44 -11 93 -14 84 -7
89 -9 78 -26 -16 -26 -1 -37 53 -40 l45 -4 0 298 c0 290 -1 298 -20 302 -11 2
-126 6 -255 8 -129 2 -216 2 -192 0 23 -2 40 -8 37 -14 -9 -13 19 -11 33 3 9
9 12 7 12 -10 0 -13 7 -25 15 -28 8 -3 17 -14 20 -25 4 -10 15 -19 26 -19 16
0 19 -7 19 -40 0 -22 4 -40 9 -40 10 0 4 -47 -11 -77 -6 -12 -8 -46 -5 -77 3
-30 3 -57 -1 -60 -6 -7 -27 -62 -44 -116 -9 -31 -12 -33 -19 -15 -5 14 -8 15
-8 4 -1 -8 -7 -24 -15 -34 -12 -16 -27 -18 -142 -16 -222 3 -474 41 -474 72 0
4 -6 6 -13 3 -7 -2 -18 9 -26 28 -7 18 -15 27 -18 21 -8 -21 -33 -15 -33 7 0
12 -7 20 -16 20 -13 0 -15 7 -10 43 4 27 1 58 -8 84 -10 29 -11 44 -4 51 8 8
3 15 -15 23 -22 10 -24 14 -13 23 8 6 20 30 26 54 6 23 15 42 20 42 4 0 11 14
15 30 4 18 11 27 17 24 6 -4 17 1 24 11 8 11 21 16 34 12 11 -3 18 -1 14 4 -3
5 -13 9 -22 9 -14 0 -14 2 -3 9 9 6 19 4 29 -5 13 -13 17 -13 31 1 19 16 37
20 44 8 2 -5 2 -3 1 4 -2 6 2 13 8 15 6 2 -94 10 -222 17 -128 7 -238 15 -244
17 -9 3 -11 -12 -9 -53z m1115 -323 c3 -17 1 -33 -4 -36 -4 -3 -8 11 -8 30 0
44 6 47 12 6z"/>
<path d="M4390 831 c0 -5 5 -13 10 -16 6 -3 10 -2 10 4 0 5 -4 13 -10 16 -5 3
-10 2 -10 -4z"/>
<path d="M1230 806 c0 -8 5 -18 10 -21 6 -3 10 1 10 9 0 8 -4 18 -10 21 -5 3
-10 -1 -10 -9z"/>
<path d="M6328 803 c7 -3 16 -2 19 1 4 3 -2 6 -13 5 -11 0 -14 -3 -6 -6z"/>
<path d="M6508 793 c17 -2 47 -2 65 0 17 2 3 4 -33 4 -36 0 -50 -2 -32 -4z"/>
<path d="M7235 769 c22 -4 54 -8 70 -7 29 0 29 0 5 8 -14 4 -45 8 -70 8 l-45
0 40 -9z"/>
<path d="M1352 710 c14 -22 43 -27 54 -9 8 14 -14 29 -44 29 -20 0 -21 -2 -10
-20z"/>
<path d="M7043 123 c9 -2 25 -2 35 0 9 3 1 5 -18 5 -19 0 -27 -2 -17 -5z"/>
<path d="M7132 118 c7 -20 58 -23 58 -4 0 11 -10 16 -31 16 -20 0 -29 -4 -27
-12z"/>
</g>
</svg>
